<svg height="504pt" viewBox="0 -56 504 504" width="504pt" xmlns="http://www.w3.org/2000/svg"><path d="m482.300781 322.992188h-460.601562c-9.773438 0-17.699219-7.925782-17.699219-17.699219v-283.59375c0-9.773438 7.925781-17.699219 17.699219-17.699219h460.601562c9.773438 0 17.699219 7.925781 17.699219 17.699219v283.59375c0 9.773437-7.925781 17.699219-17.699219 17.699219zm0 0" fill="#f4efed"/><path d="m482.300781 4h-20c9.773438 0 17.699219 7.925781 17.699219 17.699219v283.59375c0 9.773437-7.925781 17.699219-17.699219 17.699219h20c9.773438 0 17.699219-7.925782 17.699219-17.699219v-283.59375c0-9.773438-7.925781-17.699219-17.699219-17.699219zm0 0" fill="#d6d1cf"/><path d="m21.699219 322.992188h20c-9.773438 0-17.699219-7.925782-17.699219-17.699219v-283.59375c0-9.773438 7.925781-17.699219 17.699219-17.699219h-20c-9.773438 0-17.699219 7.925781-17.699219 17.699219v283.59375c0 9.773437 7.925781 17.699219 17.699219 17.699219zm0 0" fill="#fff"/><path d="m413.800781 388.710938h-323.601562v-23.707032c0-9.777344 7.921875-17.699218 17.699219-17.699218h288.203124c9.777344 0 17.699219 7.921874 17.699219 17.699218zm0 0" fill="#7bac51"/><path d="m396.101562 347.304688h-20c9.777344 0 17.699219 7.921874 17.699219 17.699218v23.710938h20v-23.710938c0-9.777344-7.921875-17.699218-17.699219-17.699218zm0 0" fill="#5d8e33"/><path d="m107.898438 347.304688h20c-9.777344 0-17.699219 7.921874-17.699219 17.699218v23.710938h-20v-23.710938c0-9.777344 7.921875-17.699218 17.699219-17.699218zm0 0" fill="#99ca6f"/><path d="m157.007812 322.992188h189.984376v24.3125h-189.984376zm0 0" fill="#5d8e33"/><path d="m20 78.40625c-2.207031 0-4-1.789062-4-4v-24c0-2.207031 1.792969-4 4-4s4 1.792969 4 4v24c0 2.210938-1.792969 4-4 4zm0 0" fill="#690589"/><path d="m413.800781 392.710938h-323.601562c-2.210938 0-4-1.789063-4-4v-23.707032c0-11.964844 9.734375-21.703125 21.699219-21.703125h288.203124c11.964844 0 21.703126 9.734375 21.703126 21.703125v23.707032c-.003907 2.210937-1.792969 4-4.003907 4zm-319.601562-8h315.601562v-19.707032c0-7.554687-6.144531-13.703125-13.699219-13.703125h-288.203124c-7.554688 0-13.699219 6.148438-13.699219 13.703125zm0 0" fill="#690589"/><path d="m346.992188 351.304688h-189.984376c-2.210937 0-4-1.792969-4-4v-24.3125c0-2.207032 1.789063-4 4-4h189.984376c2.210937 0 4 1.792968 4 4v24.3125c0 2.207031-1.789063 4-4 4zm-185.984376-8h181.984376v-16.3125h-181.984376zm0 0" fill="#690589"/><path d="m482.300781 326.992188h-460.601562c-11.964844 0-21.699219-9.734376-21.699219-21.703126v-283.589843c0-11.964844 9.734375-21.699219 21.699219-21.699219h460.601562c11.964844 0 21.699219 9.734375 21.699219 21.699219v283.59375c0 11.964843-9.734375 21.699219-21.699219 21.699219zm-460.601562-318.992188c-7.554688 0-13.699219 6.144531-13.699219 13.699219v283.59375c0 7.554687 6.144531 13.699219 13.699219 13.699219h460.601562c7.554688 0 13.699219-6.144532 13.699219-13.699219v-283.59375c0-7.554688-6.144531-13.699219-13.699219-13.699219zm0 0" fill="#690589"/><path d="m388.117188 163.496094c0 75.175781-60.941407 136.117187-136.117188 136.117187s-136.117188-60.941406-136.117188-136.117187c0-75.175782 60.941407-136.117188 136.117188-136.117188s136.117188 60.941406 136.117188 136.117188zm0 0" fill="#7bac51"/><g fill="#690589"><path d="m252 303.628906c-37.871094 0-67.539062-61.550781-67.539062-140.132812 0-78.578125 29.667968-140.132813 67.539062-140.132813s67.539062 61.550781 67.539062 140.132813c0 78.578125-29.667968 140.132812-67.539062 140.132812zm0-272.265625c-32.273438 0-59.539062 60.507813-59.539062 132.132813s27.265624 132.132812 59.539062 132.132812 59.539062-60.511718 59.539062-132.132812c0-71.625-27.265624-132.132813-59.539062-132.132813zm0 0"/><path d="m252 303.613281c-77.261719 0-140.117188-62.855469-140.117188-140.117187 0-77.261719 62.855469-140.117188 140.117188-140.117188s140.117188 62.855469 140.117188 140.117188c0 77.265625-62.855469 140.117187-140.117188 140.117187zm0-272.234375c-72.851562 0-132.117188 59.269532-132.117188 132.117188 0 72.851562 59.265626 132.117187 132.117188 132.117187s132.117188-59.265625 132.117188-132.117187c0-72.851563-59.265626-132.117188-132.117188-132.117188zm0 0"/><path d="m388.117188 167.496094h-272.234376c-2.207031 0-4-1.792969-4-4 0-2.207032 1.792969-4 4-4h272.234376c2.207031 0 4 1.792968 4 4 0 2.207031-1.792969 4-4 4zm0 0"/><path d="m252 114.21875c-44.273438 0-86.339844-10.09375-112.53125-26.996094-1.855469-1.199218-2.390625-3.671875-1.191406-5.53125 1.199218-1.855468 3.671875-2.386718 5.53125-1.191406 24.949218 16.105469 65.394531 25.71875 108.191406 25.71875s83.242188-9.613281 108.191406-25.714844c1.859375-1.199218 4.332032-.667968 5.53125 1.191406 1.199219 1.855469.664063 4.332032-1.191406 5.53125-26.191406 16.898438-68.257812 26.992188-112.53125 26.992188zm0 0"/><path d="m141.644531 247.128906c-1.316406 0-2.601562-.644531-3.363281-1.828125-1.199219-1.859375-.667969-4.332031 1.191406-5.53125 26.1875-16.902343 68.253906-26.996093 112.53125-26.996093 44.273438 0 86.339844 10.09375 112.53125 26.996093 1.855469 1.199219 2.386719 3.671875 1.191406 5.53125-1.199218 1.851563-3.671874 2.382813-5.53125 1.191407-24.953124-16.105469-65.394531-25.714844-108.191406-25.714844-42.800781 0-83.246094 9.613281-108.195312 25.714844-.671875.429687-1.421875.636718-2.164063.636718zm0 0"/><path d="m252 303.613281c-2.207031 0-4-1.792969-4-4v-272.234375c0-2.207031 1.792969-4 4-4s4 1.792969 4 4v272.234375c0 2.207031-1.792969 4-4 4zm0 0"/></g><path d="m252 221.914062h-75.050781c-7.699219 0-12.511719-8.332031-8.660157-15l37.523438-64.996093 37.527344-64.996094c3.847656-6.667969 13.472656-6.667969 17.320312 0l37.527344 64.996094 37.523438 64.996093c3.847656 6.667969-.960938 15-8.660157 15zm0 0" fill="#ff4397"/><path d="m327.050781 225.914062h-150.101562c-5.0625 0-9.59375-2.617187-12.125-7-2.53125-4.378906-2.53125-9.617187 0-14l75.050781-129.992187c2.53125-4.382813 7.066406-7 12.125-7s9.59375 2.617187 12.125 7l75.050781 129.992187c2.53125 4.382813 2.53125 9.617188 0 14-2.53125 4.386719-7.0625 7-12.125 7zm-75.050781-149.992187c-2.167969 0-4.113281 1.121094-5.195312 3l-75.054688 129.992187c-1.085938 1.878907-1.085938 4.125 0 6 1.085938 1.878907 3.027344 3 5.195312 3h150.105469c2.171875 0 4.113281-1.121093 5.199219-3 1.085938-1.875 1.085938-4.121093-.003906-6l-75.050782-129.992187c-1.082031-1.878906-3.027343-3-5.195312-3zm0 0" fill="#690589"/><path d="m245.285156 170.585938v-49.777344c0-3.699219 3.082032-6.773438 6.777344-6.773438s6.652344 3.078125 6.652344 6.773438v49.777344c0 3.816406-2.957032 6.773437-6.652344 6.773437-3.699219 0-6.777344-2.957031-6.777344-6.773437zm6.777344 29.691406c-3.699219 0-6.777344-2.957032-6.777344-6.773438v-2.464844c0-3.699218 3.082032-6.777343 6.777344-6.777343s6.652344 3.082031 6.652344 6.777343v2.464844c0 3.816406-2.957032 6.773438-6.652344 6.773438zm0 0" fill="#690589"/></svg>